<?xml version="1.0" encoding="UTF-8" standalone="no"?>
<!-- Generator: Adobe Illustrator 21.1.0, SVG Export Plug-In . SVG Version: 6.00 Build 0)  -->

<svg
   version="1.1"
   id="Layer_1"
   x="0px"
   y="0px"
   viewBox="0 0 78.667 78.67"
   style="enable-background:new 0 0 78.667 78.67;"
   xml:space="preserve"
   sodipodi:docname="close.svg"
   inkscape:version="1.4 (e7c3feb100, 2024-10-09)"
   xmlns:inkscape="http://www.inkscape.org/namespaces/inkscape"
   xmlns:sodipodi="http://sodipodi.sourceforge.net/DTD/sodipodi-0.dtd"
   xmlns="http://www.w3.org/2000/svg"
   xmlns:svg="http://www.w3.org/2000/svg"><defs
   id="defs2" /><sodipodi:namedview
   id="namedview2"
   pagecolor="#505050"
   bordercolor="#eeeeee"
   borderopacity="1"
   inkscape:showpageshadow="0"
   inkscape:pageopacity="0"
   inkscape:pagecheckerboard="0"
   inkscape:deskcolor="#505050"
   inkscape:zoom="10.385153"
   inkscape:cx="39.286853"
   inkscape:cy="39.334999"
   inkscape:window-width="1920"
   inkscape:window-height="1043"
   inkscape:window-x="0"
   inkscape:window-y="0"
   inkscape:window-maximized="1"
   inkscape:current-layer="Layer_1" />
<g
   id="g2">
	<path
   style="fill:#000000"
   d="m 55.182,24.972 c -1.219,-1.218 -3.191,-1.217 -4.408,0 L 39.335,36.411 27.9,24.972 c -1.218,-1.217 -3.19,-1.218 -4.408,0 -1.217,1.217 -1.217,3.19 0,4.408 L 34.928,40.819 23.492,52.253 c -1.217,1.218 -1.217,3.19 0,4.408 0.608,0.608 1.406,0.912 2.204,0.912 0.797,0 1.595,-0.304 2.204,-0.912 L 39.335,45.226 50.766,56.66 c 0.608,0.609 1.406,0.913 2.204,0.913 0.798,0 1.595,-0.304 2.203,-0.912 1.218,-1.217 1.218,-3.19 10e-4,-4.407 L 43.742,40.819 55.182,29.379 c 1.217,-1.216 1.217,-3.19 0,-4.407 z"
   id="path1" />
	<path
   style="fill:#000000"
   d="M 39.34,0 C 17.648,0 0,17.648 0,39.34 0,61.027 17.648,78.67 39.34,78.67 61.025,78.67 78.667,61.026 78.667,39.339 78.667,17.648 61.025,0 39.34,0 Z m 0,72.438 C 21.085,72.438 6.234,57.59 6.234,39.34 6.234,21.085 21.086,6.234 39.34,6.234 c 18.249,0 33.094,14.852 33.094,33.106 0,18.25 -14.846,33.098 -33.094,33.098 z"
   id="path2" />
</g>
</svg>
